<svg width="834" height="834" viewBox="0 0 834 834" fill="none" xmlns="http://www.w3.org/2000/svg">
    <path d="M677.595 233.5C705.244 233.5 731.761 244.483 751.311 264.034C770.862 283.585 781.845 310.101 781.845 337.75V572.312C781.845 606.874 768.116 640.019 743.678 664.457C719.239 688.896 686.094 702.625 651.533 702.625L650.334 233.5H677.595Z" fill="url(#paint0_radial_1458_11378)"/>
    <path d="M52.125 233.5C52.125 205.851 63.1085 179.335 82.6591 159.784C102.21 140.233 128.726 129.25 156.375 129.25H573.375C601.024 129.25 627.54 140.233 647.091 159.784C666.642 179.335 677.625 205.851 677.625 233.5V700.019C669.181 701.756 660.493 702.625 651.562 702.625H182.438C147.876 702.625 114.731 688.896 90.2926 664.457C65.8543 640.019 52.125 606.874 52.125 572.312V233.5Z" fill="url(#paint1_linear_1458_11378)"/>
    <path d="M52.125 233.5C52.125 205.851 63.1085 179.335 82.6591 159.784C102.21 140.233 128.726 129.25 156.375 129.25H573.375C601.024 129.25 627.54 140.233 647.091 159.784C666.642 179.335 677.625 205.851 677.625 233.5V700.019C669.181 701.756 660.493 702.625 651.562 702.625H182.438C147.876 702.625 114.731 688.896 90.2926 664.457C65.8543 640.019 52.125 606.874 52.125 572.312V233.5Z" fill="url(#paint2_linear_1458_11378)"/>
    <path d="M52.125 233.5C52.125 205.851 63.1085 179.335 82.6591 159.784C102.21 140.233 128.726 129.25 156.375 129.25H573.375C601.024 129.25 627.54 140.233 647.091 159.784C666.642 179.335 677.625 205.851 677.625 233.5V700.019C669.181 701.756 660.493 702.625 651.562 702.625H182.438C147.876 702.625 114.731 688.896 90.2926 664.457C65.8543 640.019 52.125 606.874 52.125 572.312V233.5Z" fill="url(#paint3_linear_1458_11378)"/>
    <path d="M182.438 389.875C175.525 389.875 168.896 392.621 164.009 397.509C159.121 402.396 156.375 409.025 156.375 415.938V520.188C156.375 527.1 159.121 533.729 164.009 538.616C168.896 543.504 175.525 546.25 182.438 546.25H286.688C293.6 546.25 300.229 543.504 305.116 538.616C310.004 533.729 312.75 527.1 312.75 520.188V415.938C312.75 409.025 310.004 402.396 305.116 397.509C300.229 392.621 293.6 389.875 286.688 389.875H182.438Z" fill="url(#paint4_linear_1458_11378)"/>
    <path d="M182.438 285.625C175.525 285.625 168.896 288.371 164.009 293.259C159.121 298.146 156.375 304.775 156.375 311.688C156.375 318.6 159.121 325.229 164.009 330.116C168.896 335.004 175.525 337.75 182.438 337.75H547.312C554.225 337.75 560.854 335.004 565.741 330.116C570.629 325.229 573.375 318.6 573.375 311.688C573.375 304.775 570.629 298.146 565.741 293.259C560.854 288.371 554.225 285.625 547.312 285.625H182.438ZM390.938 389.875C384.025 389.875 377.396 392.621 372.509 397.509C367.621 402.396 364.875 409.025 364.875 415.938C364.875 422.85 367.621 429.479 372.509 434.366C377.396 439.254 384.025 442 390.938 442H547.312C554.225 442 560.854 439.254 565.741 434.366C570.629 429.479 573.375 422.85 573.375 415.938C573.375 409.025 570.629 402.396 565.741 397.509C560.854 392.621 554.225 389.875 547.312 389.875H390.938ZM390.938 494.125C384.025 494.125 377.396 496.871 372.509 501.759C367.621 506.646 364.875 513.275 364.875 520.188C364.875 527.1 367.621 533.729 372.509 538.616C377.396 543.504 384.025 546.25 390.938 546.25H547.312C554.225 546.25 560.854 543.504 565.741 538.616C570.629 533.729 573.375 527.1 573.375 520.188C573.375 513.275 570.629 506.646 565.741 501.759C560.854 496.871 554.225 494.125 547.312 494.125H390.938Z" fill="url(#paint5_linear_1458_11378)"/>
    <defs>
    <radialGradient id="paint0_radial_1458_11378" cx="0" cy="0" r="1" gradientUnits="userSpaceOnUse" gradientTransform="translate(860.763 303.869) rotate(129.203) scale(332.964 497.066)">
        <stop stop-color="#068BEB"/>
        <stop offset="0.617" stop-color="#0056CF"/>
        <stop offset="0.974" stop-color="#0027A7"/>
    </radialGradient>
    <linearGradient id="paint1_linear_1458_11378" x1="230.862" y1="41.0545" x2="695.66" y2="666.711" gradientUnits="userSpaceOnUse">
        <stop stop-color="#3BD5FF"/>
        <stop offset="1" stop-color="#367AF2"/>
    </linearGradient>
    <linearGradient id="paint2_linear_1458_11378" x1="409.546" y1="592.381" x2="409.546" y2="702.625" gradientUnits="userSpaceOnUse">
        <stop offset="0.181" stop-color="#2764E7" stop-opacity="0"/>
        <stop offset="1" stop-color="#2764E7"/>
    </linearGradient>
    <linearGradient id="paint3_linear_1458_11378" x1="387.237" y1="305.693" x2="601.262" y2="865.568" gradientUnits="userSpaceOnUse">
        <stop stop-color="#DCF8FF" stop-opacity="0"/>
        <stop offset="1" stop-color="#FF6CE8" stop-opacity="0.7"/>
    </linearGradient>
    <linearGradient id="paint4_linear_1458_11378" x1="171.283" y1="382.213" x2="249.522" y2="538.796" gradientUnits="userSpaceOnUse">
        <stop stop-color="#DEFCFF"/>
        <stop offset="1" stop-color="#9FF0F9"/>
    </linearGradient>
    <linearGradient id="paint5_linear_1458_11378" x1="192.863" y1="290.212" x2="220.332" y2="573.616" gradientUnits="userSpaceOnUse">
        <stop stop-color="#FDFDFD"/>
        <stop offset="1" stop-color="#CCEAFF"/>
    </linearGradient>
    </defs>
</svg>
